<?xml version="1.0" encoding="utf-8"?>
<!-- Generator: Adobe Illustrator 23.0.0, SVG Export Plug-In . SVG Version: 6.00 Build 0)  -->
<svg version="1.1" id="레이어_1" xmlns="http://www.w3.org/2000/svg" xmlns:xlink="http://www.w3.org/1999/xlink" x="0px"
	 y="0px" viewBox="0 0 77.9 71" style="enable-background:new 0 0 77.9 71;" xml:space="preserve">
<style type="text/css">
	.st0{fill:#FFFFFF;stroke:#000000;stroke-miterlimit:10;}
	.st1{fill:#F1EED8;stroke:#000000;stroke-miterlimit:10;}
</style>
<path d="M72,70.2v-47c0,0,0-5.5-5.7-7.5H53l-18.3-5H18.1c0,0-9.5,0.5-9,8.3l0,19.3l56.4,31C65.5,69.3,68.6,71.3,72,70.2z"/>
<polygon class="st0" points="12.3,30.3 38.8,2.2 76.6,39.7 65.8,49.2 "/>
<path class="st1" d="M4.6,30.3H56c0,0,5.2-0.5,6.3,5l8.8,35.1l-59.9,0.1L1.6,35.3C1.6,35.3,0.1,30.3,4.6,30.3z"/>
</svg>
