<?xml version="1.0" encoding="utf-8"?>
<!-- Generator: Adobe Illustrator 23.0.0, SVG Export Plug-In . SVG Version: 6.00 Build 0)  -->
<svg version="1.1" id="레이어_1" xmlns="http://www.w3.org/2000/svg" xmlns:xlink="http://www.w3.org/1999/xlink" x="0px"
	 y="0px" viewBox="0 0 80.1 56.8" style="enable-background:new 0 0 80.1 56.8;" xml:space="preserve">
<style type="text/css">
	.st0{fill:#85A2B9;}
</style>
<path class="st0" d="M9.3,39.6c1.9,7.9,9,13.8,17.4,13.8c4.5,0,8.6-1.6,11.7-4.3c1.6,4.5,5.9,7.7,10.9,7.7c5.4,0,9.9-3.7,11.2-8.7
	c0.6,0.1,1.1,0.1,1.7,0.1c9.9,0,17.9-8,17.9-17.9c0-8.9-6.5-16.3-15-17.7c-1.5-4.6-5.9-8-11-8c-3.5,0-6.7,1.6-8.8,4.1
	C42.1,3.5,36.4,0,29.9,0C20.4,0,12.6,7.4,12,16.8c-0.1,0-0.3,0-0.4,0C5.2,16.7,0,21.9,0,28.3C0,33.9,4,38.6,9.3,39.6z"/>
</svg>
