<?xml version="1.0" encoding="utf-8"?>
<!-- Generator: Adobe Illustrator 23.0.0, SVG Export Plug-In . SVG Version: 6.00 Build 0)  -->
<svg version="1.1" id="Capa_1" xmlns="http://www.w3.org/2000/svg" xmlns:xlink="http://www.w3.org/1999/xlink" x="0px" y="0px"
	 viewBox="0 0 512 512" style="enable-background:new 0 0 512 512;" xml:space="preserve">
<style type="text/css">
	.st0{fill-rule:evenodd;clip-rule:evenodd;fill:#8BABC4;}
	.st1{fill-rule:evenodd;clip-rule:evenodd;fill:#ED6E8C;}
	.st2{fill-rule:evenodd;clip-rule:evenodd;fill:#6289A3;}
	.st3{fill-rule:evenodd;clip-rule:evenodd;fill:#DB4B6D;}
	.st4{fill:#FFFFFF;}
</style>
<g>
	<g>
		<g>
			<g>
				<path class="st0" d="M118.3,18.7L19.8,189.4c-4.1,7.2-1.7,16.3,5.5,20.5l78.2,45.1l14.4,59.1l58.4-17.1l56.9,32.9l21.2,12.3
					c7.2,4.1,16.3,1.7,20.5-5.5l49.3-85.3l49.3-85.3c4.1-7.2,1.7-16.3-5.5-20.5L138.8,13.3C131.6,9.1,122.4,11.6,118.3,18.7
					L118.3,18.7z M160.2,240.7l-22-82c-16.6-61.9,61.3-80.5,75.3-10.5c67.6-22.9,90.5,53.9,28.6,70.5L160.2,240.7z"/>
				<path class="st1" d="M213.5,148.2c-14-70-91.9-51.4-75.3,10.5l22,82l82-22C304,202.1,281.2,125.4,213.5,148.2z"/>
				<path class="st0" d="M233.1,329.8l-23,39.8c-4.1,7.2-1.7,16.3,5.5,20.5l61.9,35.8l11.6,48.9l48.1-14.4l61.9,35.8
					c7.2,4.1,16.3,1.7,20.5-5.5l72.3-125.1c4.1-7.2,1.7-16.3-5.5-20.5l-162.4-93.7l-49.3,85.3c-4.1,7.2-13.3,9.6-20.5,5.5
					L233.1,329.8z M324.5,413.5L309,355.6c-11.7-43.7,43.3-56.8,53.2-7.4c47.8-16.2,63.9,38.1,20.2,49.8L324.5,413.5z"/>
				<path class="st1" d="M362.2,348.2c-9.9-49.4-64.9-36.3-53.2,7.4l15.5,57.9l57.9-15.5C426.1,386.3,410,332.1,362.2,348.2z"/>
				<path class="st2" d="M118.3,18.7L19.8,189.4c-4.1,7.2-1.7,16.3,5.5,20.5l19.5,11.3c-7.2-4.1-9.6-13.3-5.5-20.5L137.8,30
					c4.1-7.2,13.3-9.6,20.5-5.5l-19.5-11.3C131.6,9.1,122.4,11.6,118.3,18.7L118.3,18.7z"/>
				<g>
					<path class="st3" d="M197.8,115.5c-26.7-27.6-72.7-5.8-59.6,43.2l22,82l15.4-4.1L157.7,170C147.4,131.7,173.3,110,197.8,115.5z
						"/>
					<path class="st3" d="M353.5,327.9c-18.4-23.6-54.2-8.4-44.5,27.7l15.5,57.9l15.4-4.1l-11.4-42.5
						C321.7,341.6,337.3,326.5,353.5,327.9z"/>
				</g>
			</g>
			<path class="st2" d="M233.1,329.8l-23,39.8c-4.1,7.2-1.7,16.3,5.5,20.5l13,7.5c-7.2-4.1-9.6-13.3-5.5-20.5l15.5-26.8l8.2,4.8
				c14.3,8.3,32.7,3.4,41-11l49.3-85.3l-13-7.5l-49.3,85.3c-4.1,7.2-13.3,9.6-20.5,5.5L233.1,329.8L233.1,329.8z"/>
		</g>
		<g>
			<path class="st4" d="M240.8,361.4l13,7.5l-7.5,13l-13-7.5L240.8,361.4z"/>
		</g>
		<g>
			<path class="st4" d="M455.7,353.3l13,7.5l-7.5,13l-13-7.5L455.7,353.3z"/>
		</g>
		<g>
			<path class="st4" d="M337.1,153.7l13,7.5l-7.5,13l-13-7.5L337.1,153.7z"/>
		</g>
		<g>
			<path class="st4" d="M311.1,138.7l13,7.5l-7.5,13l-13-7.5L311.1,138.7z"/>
		</g>
		<g>
			<path class="st4" d="M76.5,196.1l13,7.5l-7.5,13l-13-7.5L76.5,196.1z"/>
		</g>
		<g>
			<path class="st4" d="M50.5,181.1l13,7.5l-7.5,13l-13-7.5L50.5,181.1z"/>
		</g>
		<g>
			<path class="st4" d="M241.8,168.9l13,7.5l-7.5,13l-13-7.5L241.8,168.9z"/>
		</g>
	</g>
	<g>
		<path d="M281.3,340.4l19.3-33.3l-13-7.5l-19.3,33.3c-2.1,3.6-6.7,4.8-10.2,2.7l-80.9-46.7l-53.9,15.8L110,250.1L29,203.3
			c-3.6-2.1-4.8-6.7-2.7-10.2l98.5-170.6c2.1-3.6,6.7-4.8,10.2-2.7l32.5,18.8l7.5-13L142.5,6.8C131.8,0.6,118,4.3,111.8,15
			L13.3,185.6c-6.2,10.7-2.5,24.5,8.2,30.7l75.4,43.5l15.5,63.6l62.8-18.4l75.4,43.5C261.3,354.8,275.1,351.1,281.3,340.4z"/>
		<path d="M366.8,162.2l-71.8,124.3l13,7.5l71.8-124.3c6.2-10.7,2.5-24.5-8.2-30.7L188,33l-7.5,13l183.6,106
			C367.7,154.1,368.9,158.7,366.8,162.2z"/>
		<path d="M490.2,338.6l-142.9-82.5l-7.5,13l142.9,82.5c3.6,2.1,4.8,6.7,2.7,10.2l-46,79.7l13,7.5l46-79.7
			C504.6,358.5,500.9,344.8,490.2,338.6z"/>
		<path d="M413.2,486.9c-2.1,3.6-6.7,4.8-10.2,2.7l-64.7-37.4l-43.6,13L284.1,421l-64.7-37.4c-3.6-2.1-4.8-6.7-2.7-10.2l11.8-20.4
			l-13-7.5l-11.8,20.4c-6.2,10.7-2.5,24.5,8.2,30.7l59.1,34.1l12.7,53.4l52.6-15.7l59.1,34.1c10.7,6.2,24.5,2.5,30.7-8.2l18.7-32.5
			l-13-7.5L413.2,486.9z"/>
		<path d="M136.4,181.2l14.5-3.9l-5.5-20.5c-4.3-16-1.7-30.1,7.2-38.6c7-6.7,16.9-9,26.4-6c13.4,4.2,23.3,17.9,27.2,37.5l1.7,8.4
			l8.1-2.7c19-6.4,35.8-4.7,46.1,4.8c7.3,6.7,10.3,16.4,8,25.8c-2.9,11.9-13.8,21.2-29.8,25.5l-74.7,20l-10.6-39.7l-14.5,3.9
			l14.5,54.2l89.2-23.9c21.5-5.8,36.3-19,40.5-36.4c3.6-14.6-1.2-30.1-12.4-40.5c-12.9-11.8-32-15.4-53.2-10.3
			c-6.1-21-18.8-35.7-35.5-41c-14.6-4.6-30.4-1-41.2,9.5c-12.9,12.4-17,31.8-11.3,53.3L136.4,181.2z"/>
		<path d="M306.1,373.7l14.5-3.9l-4.3-16.1c-2.8-10.5-1.2-19.7,4.5-25.1c4.4-4.2,10.5-5.6,16.4-3.7c8.6,2.7,15.1,11.8,17.7,24.8
			l1.7,8.4l8.1-2.7c12.6-4.3,23.7-3.2,30.4,2.9c4.6,4.2,6.4,10.2,5,16.1c-1.9,7.6-9,13.6-19.5,16.4l-50.6,13.6l-5.4-20l-14.5,3.9
			l9.2,34.5l65.1-17.5c16-4.3,27-14.2,30.2-27.3c2.7-11.1-0.9-22.9-9.4-30.7c-9.3-8.5-22.7-11.4-37.6-8.2
			c-4.7-14.5-13.9-24.7-25.9-28.4c-11.1-3.5-23.1-0.7-31.3,7.2c-9.7,9.3-12.9,23.8-8.6,39.8L306.1,373.7z"/>
	</g>
</g>
</svg>
