<?xml version="1.0" encoding="utf-8"?>
<!-- Generator: Adobe Illustrator 23.0.0, SVG Export Plug-In . SVG Version: 6.00 Build 0)  -->
<svg version="1.1" id="Capa_1" xmlns="http://www.w3.org/2000/svg" xmlns:xlink="http://www.w3.org/1999/xlink" x="0px" y="0px"
	 viewBox="0 0 513.2 342.9" style="enable-background:new 0 0 513.2 342.9;" xml:space="preserve">
<style type="text/css">
	.st0{fill-rule:evenodd;clip-rule:evenodd;fill:#8BABC4;}
	.st1{fill-rule:evenodd;clip-rule:evenodd;fill:#ED6E8C;}
	.st2{fill-rule:evenodd;clip-rule:evenodd;fill:#6289A3;}
	.st3{fill-rule:evenodd;clip-rule:evenodd;fill:#DB4B6D;}
	.st4{fill:#FFFFFF;}
</style>
<g>
	<g>
		<g>
			<g>
				<path class="st0" d="M8.7,22.5v197c0,8.3,6.7,15,15,15H114l42,44l42-44h65.7h24.5c8.3,0,15-6.7,15-15V121V22.5
					c0-8.3-6.7-15-15-15H23.7C15.4,7.5,8.7,14.2,8.7,22.5L8.7,22.5z M156,193.8l-60-60C50.6,88.4,108.9,33.4,156,87
					c47.1-53.6,105.3,1.4,60,46.8L156,193.8z"/>
				<path class="st1" d="M156,87c-47.1-53.6-105.3,1.4-60,46.8l60,60l60-60C261.3,88.4,203.1,33.4,156,87z"/>
				<path class="st0" d="M263.7,234.5v46c0,8.3,6.7,15,15,15h71.5l34.5,36.5l34.5-36.5h71.5c8.3,0,15-6.7,15-15V136
					c0-8.3-6.7-15-15-15H303.2v98.5c0,8.3-6.7,15-15,15H263.7z M384.7,261.3l-42.4-42.4c-32-32,9.1-70.9,42.4-33
					c33.3-37.9,74.4,1,42.4,33L384.7,261.3z"/>
				<path class="st1" d="M384.7,185.9c-33.3-37.9-74.4,1-42.4,33l42.4,42.4l42.4-42.4C459.1,186.9,418,148,384.7,185.9z"/>
				<path class="st2" d="M8.7,22.5v197c0,8.3,6.7,15,15,15h22.5c-8.3,0-15-6.7-15-15v-197c0-8.3,6.7-15,15-15H23.7
					C15.4,7.5,8.7,14.2,8.7,22.5L8.7,22.5z"/>
				<g>
					<path class="st3" d="M126,66.5C89,56,60.1,97.9,96,133.8l60,60l11.3-11.3l-48.8-48.8C90.5,105.8,102,74.1,126,66.5z"/>
					<path class="st3" d="M367,172.6c-27.7-11.3-51.1,19.8-24.7,46.3l42.4,42.4L396,250l-31.1-31.1
						C346.3,200.4,352.3,179.5,367,172.6z"/>
				</g>
			</g>
			<path class="st2" d="M263.7,234.5v46c0,8.3,6.7,15,15,15h15c-8.3,0-15-6.7-15-15v-31h9.5c16.6,0,30-13.4,30-30V121h-15v98.5
				c0,8.3-6.7,15-15,15L263.7,234.5L263.7,234.5z"/>
		</g>
		<g>
			<path class="st4" d="M286.2,258h15v15h-15V258z"/>
		</g>
		<g>
			<path class="st4" d="M468.2,143.5h15v15h-15V143.5z"/>
		</g>
		<g>
			<path class="st4" d="M265.7,30h15v15h-15V30z"/>
		</g>
		<g>
			<path class="st4" d="M235.7,30h15v15h-15V30z"/>
		</g>
		<g>
			<path class="st4" d="M61.2,197h15v15h-15V197z"/>
		</g>
		<g>
			<path class="st4" d="M31.2,197h15v15h-15V197z"/>
		</g>
		<g>
			<path class="st4" d="M190.8,90.8h15v15h-15V90.8z"/>
		</g>
	</g>
	<g>
		<path d="M310.7,219.5V181h-15v38.5c0,4.1-3.4,7.5-7.5,7.5h-93.5L156,267.6L117.2,227H23.7c-4.1,0-7.5-3.4-7.5-7.5v-197
			c0-4.1,3.4-7.5,7.5-7.5h37.5V0L23.7,0C11.3,0,1.2,10.1,1.2,22.5v197c0,12.4,10.1,22.5,22.5,22.5h87l45.2,47.4l45.2-47.4h87
			C300.6,242,310.7,231.9,310.7,219.5z"/>
		<path d="M295.7,22.5V166h15V22.5c0-12.4-10.1-22.5-22.5-22.5l-212,0v15h212C292.4,15,295.7,18.4,295.7,22.5z"/>
		<path d="M490.7,113.5h-165v15h165c4.1,0,7.5,3.4,7.5,7.5v92h15v-92C513.2,123.6,503.1,113.5,490.7,113.5z"/>
		<path d="M498.2,280.5c0,4.1-3.4,7.5-7.5,7.5H416l-31.3,33.1L353.5,288h-74.7c-4.1,0-7.5-3.4-7.5-7.5V257h-15v23.5
			c0,12.4,10.1,22.5,22.5,22.5H347l37.7,39.9l37.7-39.9h68.3c12.4,0,22.5-10.1,22.5-22.5V243h-15L498.2,280.5z"/>
		<path d="M105.7,154.1l10.6-10.6l-15-15c-11.7-11.7-16.5-25.2-13.1-37c2.7-9.3,10.1-16.2,19.8-18.4c13.7-3,29.1,3.8,42.3,18.9
			l5.6,6.4l5.6-6.4c13.2-15,28.6-21.9,42.3-18.9c9.7,2.2,17.1,9,19.8,18.4c3.4,11.8-1.3,25.3-13.1,37L156,183.2l-29.1-29.1
			l-10.6,10.6l39.7,39.7l65.3-65.3c15.7-15.7,21.9-34.6,16.9-51.8c-4.2-14.5-16.1-25.5-31-28.8c-17.1-3.8-35.4,2.6-51.2,17.7
			c-15.8-15.1-34.1-21.5-51.2-17.7c-14.9,3.3-26.8,14.4-31,28.8c-5,17.2,1.2,36.1,16.9,51.8L105.7,154.1z"/>
		<path d="M348.9,236l10.6-10.6l-11.8-11.8c-7.7-7.7-10.9-16.4-8.7-24c1.7-5.8,6.3-10.1,12.4-11.4c8.9-2,19,2.6,27.8,12.6l5.6,6.4
			l5.6-6.4c8.8-10,18.9-14.6,27.8-12.6c6.1,1.3,10.7,5.6,12.4,11.4c2.2,7.5-1,16.3-8.7,24l-37.1,37.1L370.1,236l-10.6,10.6
			l25.3,25.3l47.7-47.7c11.7-11.7,16.3-25.8,12.5-38.8c-3.2-11-12.2-19.4-23.5-21.9c-12.3-2.7-25.3,1.5-36.6,11.7
			c-11.3-10.2-24.4-14.4-36.6-11.7c-11.3,2.5-20.3,10.9-23.5,21.9c-3.8,12.9,0.8,27.1,12.5,38.8L348.9,236z"/>
	</g>
</g>
</svg>
