<?xml version="1.0" encoding="utf-8"?>
<!-- Generator: Adobe Illustrator 23.0.0, SVG Export Plug-In . SVG Version: 6.00 Build 0)  -->
<svg version="1.1" id="레이어_1" xmlns="http://www.w3.org/2000/svg" xmlns:xlink="http://www.w3.org/1999/xlink" x="0px"
	 y="0px" viewBox="0 0 48.3 50.2" style="enable-background:new 0 0 48.3 50.2;" xml:space="preserve">
<style type="text/css">
	.st0{fill:#C5C1BC;}
	.st1{fill:#EAE8E5;}
	.st2{fill:#3B4F8C;stroke:#000000;stroke-linejoin:bevel;stroke-miterlimit:10;}
	.st3{fill:#7787A6;stroke:#000000;stroke-linejoin:bevel;stroke-miterlimit:10;}
	.st4{fill:#D88B9C;stroke:#000000;stroke-linejoin:bevel;stroke-miterlimit:10;}
	.st5{fill:#375C8C;stroke:#000000;stroke-linejoin:bevel;stroke-miterlimit:10;}
	.st6{fill:#212340;stroke:#000000;stroke-linejoin:bevel;stroke-miterlimit:10;}
</style>
<polygon class="st0" points="13.7,7.9 3.3,27 13.7,27 "/>
<polygon class="st1" points="13.7,46.1 13.7,27 3.3,27 "/>
<polygon class="st1" points="25.2,27 13.7,27 13.7,46.1 30.6,36.6 "/>
<polygon class="st1" points="47.3,27 36.6,46.1 30.6,36.6 "/>
<polygon class="st1" points="30.6,36.6 36.6,46.1 13.7,46.1 "/>
<polygon class="st1" points="30.6,17.5 47.3,27 30.6,36.6 25.2,27 "/>
<polygon class="st1" points="30.6,17.5 36.3,7.5 47.3,27 "/>
<polygon class="st0" points="13.7,7.5 36.3,7.5 30.6,17.5 "/>
<polygon class="st0" points="13.7,7.5 13.7,27 25.2,27 30.6,17.5 "/>
<polygon class="st2" points="11.6,4.6 1.2,23.8 11.6,23.8 "/>
<polygon class="st3" points="11.6,42.9 11.6,23.8 1.2,23.8 "/>
<polygon class="st4" points="23.1,23.8 11.6,23.8 11.6,42.9 28.5,33.3 "/>
<polygon class="st2" points="45.2,23.8 34.4,42.9 28.5,33.3 "/>
<polygon class="st5" points="28.5,33.3 34.4,42.9 11.6,42.9 "/>
<polygon class="st6" points="28.5,14.2 45.2,23.8 28.5,33.3 23.1,23.8 "/>
<polygon class="st4" points="28.5,14.2 34.1,4.3 45.2,23.8 "/>
<polygon class="st3" points="11.6,4.3 34.1,4.3 28.5,14.2 "/>
<polygon class="st5" points="11.6,4.3 11.6,23.8 23.1,23.8 28.5,14.2 "/>
</svg>
