<?xml version="1.0" encoding="utf-8"?>
<!-- Generator: Adobe Illustrator 23.0.0, SVG Export Plug-In . SVG Version: 6.00 Build 0)  -->
<svg version="1.1" id="레이어_1" xmlns="http://www.w3.org/2000/svg" xmlns:xlink="http://www.w3.org/1999/xlink" x="0px"
	 y="0px" viewBox="0 0 230 216" style="enable-background:new 0 0 230 216;" xml:space="preserve">
<style type="text/css">
	.st0{fill:none;stroke:#031226;stroke-width:8;stroke-linecap:round;}
	.st1{fill-rule:evenodd;clip-rule:evenodd;fill:#8BABC4;}
	.st2{fill-rule:evenodd;clip-rule:evenodd;fill:#AFD1F2;}
	.st3{fill-rule:evenodd;clip-rule:evenodd;fill:#FEDBAD;}
	.st4{fill-rule:evenodd;clip-rule:evenodd;fill:#99C5F2;}
	.st5{fill-rule:evenodd;clip-rule:evenodd;fill:#FAB684;}
	.st6{fill-rule:evenodd;clip-rule:evenodd;fill:#6289A3;}
	.st7{fill:#FFFFFF;}
</style>
<path class="st0" d="M183.7,41l21-21"/>
<path class="st0" d="M190.1,56.3l28.1-9.6"/>
<path class="st0" d="M170.6,32.3l11.1-27.5"/>
<path class="st1" d="M79.5,25.1c47.5-8.3,92.7,23.5,101,71c8.3,47.5-23.4,92.8-71,101.1c-14.3,2.5-28.4,1.4-41.4-2.7l-35.6,6.2
	L26.5,166c-9-11.1-15.4-24.6-18-39.6l0-0.1l0-0.1c-8.2-47.4,23.4-92.6,70.8-101L79.5,25.1z M76.9,158.8l-0.9-5.2l17.2-3l11.4,5.3
	l32.1-5.6c4.3-0.8,7.2-4.9,6.5-9.3c-0.8-4.3-4.9-7.2-9.2-6.5c5.3-0.9,10.8-2.9,9.6-9.8c-0.8-4.3-4.9-7.2-9.2-6.5
	c4.9-0.9,8.5-4.3,7.6-9.6c-0.8-4.4-5-7.4-9.4-6.6c5-0.9,8.8-4.4,7.8-9.8c-0.8-4.5-5.1-7.5-9.6-6.7l-23.4,4.1l-4.7-27.1
	c-0.8-4.5-5.1-7.5-9.6-6.7l-8.2,1.4L88.1,76l-9.7,24.8l-11.2,2l-0.9-5.2l-26,4.6L51,163.3L76.9,158.8z"/>
<path class="st2" d="M66.2,97.6c3.6,20.4,7.2,40.8,10.7,61.2l-26,4.6l-10.7-61.2L66.2,97.6z"/>
<path class="st3" d="M78.3,100.8L88.1,76l-3.3-18.8l8.2-1.4c4.5-0.8,8.8,2.2,9.6,6.7l4.7,27.1l23.4-4.1c4.5-0.8,8.8,2.2,9.6,6.7
	c1,5.4-2.8,8.9-7.8,9.8c4.4-0.8,8.6,2.2,9.4,6.6c0.9,5.2-2.7,8.7-7.6,9.6c4.3-0.8,8.5,2.2,9.2,6.5c1.2,6.9-4.3,8.9-9.6,9.8
	c4.3-0.8,8.5,2.2,9.2,6.5c0.8,4.3-2.2,8.5-6.5,9.3l-32.1,5.6l-11.4-5.3l-17.2,3l-8.9-50.8L78.3,100.8z"/>
<path class="st4" d="M51,163.3l7.8-1.4L48,100.8l-7.8,1.4L51,163.3z"/>
<path class="st5" d="M78.3,100.8L88.1,76l-3.3-18.8l7.8-1.4l3.3,18.8l-13.1,33.4l-6.5,1.1l7.5,43l-7.8,1.4l-8.9-50.8L78.3,100.8z"/>
<path class="st6" d="M83.3,24.6C18.3,39-5.1,116,34.3,164.7l6.1,34.7l-7.8,1.4L26.5,166c-9.4-11.6-15.5-25.2-18.1-39.9
	C-0.1,77,34,30.9,83.3,24.6z"/>
<path class="st7" d="M144.3,49.3c-14.9-12-33.5-18.2-52.5-17.5l0.2,5.3c36.7-1.3,69.2,25.1,75.5,61.3l5.2-0.9
	C169.4,78.5,159.3,61.4,144.3,49.3z M86.4,32.2c-1.9,0.2-3.8,0.5-5.7,0.8l0.9,5.2c1.7-0.3,3.5-0.6,5.3-0.7L86.4,32.2z"/>
<path class="st7" d="M61.6,117.2l-5.2,0.9l2.7,15.6l5.2-0.9L61.6,117.2z M59.8,106.8l-5.2,0.9l0.9,5.2l5.2-0.9L59.8,106.8z"/>
<path class="st7" d="M53.6,183.7l-5.2,0.9l0.9,5.2l5.2-0.9L53.6,183.7z M43.3,185.5l-5.2,0.9l0.9,5.2l5.2-0.9L43.3,185.5z"/>
<path d="M162.3,161.9l4.2,3.2c-13.8,18.4-33.9,30.8-56.5,34.8c-14,2.5-28.5,1.6-42-2.6l-37.6,6.6L24,167.2
	c-9.3-11.7-15.6-25.6-18.2-40.4C1.7,103.3,6.9,79.6,20.4,60l4.3,3C12,81.5,7.2,103.8,11,125.8c2.5,14.1,8.5,27.5,17.5,38.6l0.4,0.5
	l5.8,32.8l33.6-5.9L69,192c12.9,4.1,26.8,5,40.2,2.6C130.5,190.9,149.4,179.3,162.3,161.9z"/>
<path d="M183.1,95.6c4,22.7-0.8,45.8-13.4,65l-4.4-2.9c11.9-18.1,16.4-39.8,12.7-61.2c-8.1-46-52.1-76.9-98.1-68.8
	c-20.6,3.6-39.1,14.7-52,31.2l-4.1-3.3C37.4,38.1,57,26.4,78.9,22.5c23.7-4.2,47.6,1.2,67.2,15C165.8,51.3,179,72,183.1,95.6z"/>
<path d="M140,101.1c2.3,1.6,4,4,4.5,7c0.6,3.6-0.4,6.8-2.7,9.2c2.3,1.6,3.9,4,4.4,6.9c0.9,5.1-1.3,8.1-3.3,9.7
	c-0.2,0.1-0.4,0.3-0.5,0.4c1.8,1.5,3.1,3.7,3.5,6.2c1,5.8-2.9,11.3-8.6,12.3l-13.5,2.4l-0.9-5.2l13.5-2.4c2.9-0.5,4.9-3.3,4.3-6.2
	c-0.5-2.9-3.3-4.9-6.2-4.3l-4.1,0.7l-0.9-5.2l4.1-0.7c7-1.2,8-3.5,7.4-6.7c-0.5-2.9-3.3-4.9-6.2-4.3l-7.2,1.3l-0.9-5.2l7.2-1.3
	c3.1-0.5,6.1-2.5,5.4-6.5c-0.5-3-3.4-5-6.4-4.5l-8.2,1.4l-0.9-5.2l8.2-1.4c1.6-0.3,6.6-1.6,5.7-6.7c-0.5-3.1-3.5-5.1-6.6-4.6
	l-31.6,5.5l-0.9-5.2l31.6-5.5c5.9-1,11.6,2.9,12.7,8.9C143.5,95.4,142.4,98.8,140,101.1z"/>
<path d="M45.6,148.2l5.2-0.9l2.3,13l20.8-3.6l-4.5-25.4l5.2-0.9l3.5,20.2l15.4-2.7l11.4,5.3l12.7-2.2l0.9,5.2l-14.3,2.5l-11.4-5.3
	l-13.8,2.4l0.9,5.2l-31.2,5.5L45.6,148.2z"/>
<path d="M68.3,94.6l0.9,5.2l7.2-1.3l8.9-22.7l-3.6-20.7l10.8-1.9c5.9-1,11.6,2.9,12.7,8.9l3.4,19.3l-5.2,0.9L99.9,63
	c-0.5-3.1-3.5-5.1-6.6-4.6l-5.6,1l3,17l-10.5,26.9l-10.1,1.8l3.5,20.2l-5.2,0.9l-4.5-25.4l-20.8,3.6l6.6,37.8l-5.2,0.9l-7.5-43
	L68.3,94.6z"/>
</svg>
